<svg width="8" height="5" viewBox="0 0 8 5" fill="none" xmlns="http://www.w3.org/2000/svg">
<path d="M7.80941 0.933986L4.29329 4.46057C4.25143 4.50243 4.20609 4.53201 4.15725 4.54931C4.10842 4.56689 4.05609 4.57568 4.00028 4.57568C3.94447 4.57568 3.89215 4.56689 3.84331 4.54931C3.79448 4.53201 3.74913 4.50243 3.70727 4.46057L0.180685 0.933986C0.0830147 0.836316 0.0341797 0.714228 0.0341797 0.567723C0.0341797 0.421218 0.0865029 0.295643 0.191149 0.190996C0.295796 0.08635 0.417883 0.0340266 0.557412 0.0340266C0.696941 0.0340266 0.819028 0.08635 0.923675 0.190996L4.00028 3.2676L7.07689 0.190996C7.17456 0.0933261 7.29483 0.0444908 7.43771 0.0444908C7.58086 0.0444908 7.70477 0.0968142 7.80941 0.201461C7.91406 0.306107 7.96638 0.428195 7.96638 0.567723C7.96638 0.707252 7.91406 0.82934 7.80941 0.933986Z" fill="#337CFC"/>
</svg>
