<svg width="19" height="19" viewBox="0 0 19 19" fill="none" xmlns="http://www.w3.org/2000/svg">
<path d="M9.32334 6.37855C7.70411 6.37534 6.38007 7.69415 6.37685 9.31341C6.37363 10.9327 7.69242 12.2567 9.31165 12.2599C10.9309 12.2632 12.2549 10.9444 12.2581 9.32509C12.2614 7.70583 10.9426 6.38177 9.32334 6.37855ZM18.1372 9.33677C18.1396 8.11902 18.1531 6.91232 18.0871 5.69663C18.0215 4.28461 17.7019 3.03092 16.6715 1.99642C15.639 0.959719 14.3888 0.637354 12.9771 0.566161C11.7595 0.495353 10.5527 0.503987 9.33722 0.501572C8.11948 0.499153 6.91281 0.485725 5.69715 0.551699C4.28515 0.617283 3.03148 0.936881 1.99701 1.96727C0.960321 2.99987 0.637961 4.25008 0.566769 5.66183C0.495963 6.87945 0.504596 8.08619 0.502181 9.30174C0.499767 10.5173 0.486335 11.7262 0.552307 12.9419C0.61789 14.3539 0.937482 15.6076 1.96785 16.6421C3.00043 17.6788 4.25062 18.0012 5.66234 18.0723C6.87994 18.1432 8.08666 18.1345 9.30218 18.1369C10.5199 18.1394 11.7266 18.1528 12.9423 18.0868C14.3543 18.0212 15.6079 17.7016 16.6424 16.6712C17.6791 15.6386 18.0014 14.3884 18.0726 12.9767C18.1456 11.7613 18.1348 10.5545 18.1372 9.33677ZM9.30851 13.8439C6.80466 13.8389 4.78794 11.8142 4.79292 9.31026C4.79789 6.80637 6.82263 4.78962 9.32648 4.79459C11.8303 4.79956 13.847 6.82434 13.8421 9.32824C13.8371 11.8321 11.8124 13.8489 9.30851 13.8439ZM14.0346 5.67535C13.45 5.67418 12.9789 5.20115 12.98 4.61654C12.9812 4.03193 13.4542 3.56076 14.0388 3.56193C14.6234 3.56309 15.0946 4.03613 15.0934 4.62074C15.0933 4.75955 15.0658 4.89699 15.0125 5.02517C14.9592 5.15335 14.8812 5.26975 14.7828 5.36772C14.6845 5.46568 14.5678 5.54328 14.4394 5.59607C14.311 5.64886 14.1735 5.6758 14.0346 5.67535Z" fill="white"/>
</svg>
