<svg width="9" height="9" viewBox="0 0 9 9" fill="none" xmlns="http://www.w3.org/2000/svg">
<path d="M4.30719 7.44472L2.33247 8.63431C2.24524 8.68983 2.15404 8.71362 2.05887 8.70569C1.9637 8.69775 1.88043 8.66603 1.80905 8.61052C1.73768 8.55501 1.68217 8.48569 1.64251 8.40258C1.60286 8.31915 1.59493 8.22589 1.61872 8.12279L2.14214 5.87447L0.393445 4.36369C0.31414 4.29232 0.264653 4.21095 0.244985 4.11959C0.225 4.02854 0.230868 3.9394 0.262591 3.85217C0.294313 3.76493 0.341897 3.69356 0.405341 3.63804C0.468786 3.58253 0.556022 3.54684 0.667051 3.53098L2.97485 3.32875L3.86704 1.21128C3.90669 1.11612 3.96824 1.04474 4.05167 0.997157C4.13478 0.949573 4.21995 0.925781 4.30719 0.925781C4.39443 0.925781 4.47976 0.949573 4.56319 0.997157C4.6463 1.04474 4.70768 1.11612 4.74734 1.21128L5.63953 3.32875L7.94733 3.53098C8.05836 3.54684 8.14559 3.58253 8.20904 3.63804C8.27248 3.69356 8.32007 3.76493 8.35179 3.85217C8.38351 3.9394 8.38954 4.02854 8.36987 4.11959C8.34988 4.21095 8.30024 4.29232 8.22093 4.36369L6.47224 5.87447L6.99566 8.12279C7.01945 8.22589 7.01152 8.31915 6.97187 8.40258C6.93221 8.48569 6.8767 8.55501 6.80532 8.61052C6.73395 8.66603 6.65068 8.69775 6.55551 8.70569C6.46034 8.71362 6.36914 8.68983 6.2819 8.63431L4.30719 7.44472Z" fill="#F52525"/>
</svg>
