<svg width="21" height="13" viewBox="0 0 21 13" fill="none" xmlns="http://www.w3.org/2000/svg">
<path fill-rule="evenodd" clip-rule="evenodd" d="M1.4274 0.79543C1.32632 0.807067 1.18097 0.850654 1.11407 0.889374C0.840573 1.04764 0.810544 1.34077 0.99579 2.04414C1.32846 3.30729 2.14446 5.01678 3.19069 6.64231C3.61092 7.29522 4.34639 8.31798 4.70128 8.74298C5.3537 9.52427 6.11965 10.2111 6.91103 10.7246C8.00574 11.4348 9.11931 11.8486 10.3382 11.998C10.6185 12.0324 11.4202 12.0336 11.6813 12.0001C12.1622 11.9384 12.401 11.8076 12.4953 11.5543C12.5239 11.4774 12.5279 11.3645 12.5376 10.3561C12.5485 9.21973 12.5544 9.12086 12.6226 8.93051C12.6606 8.82441 12.7605 8.74315 12.8812 8.72001C13.0085 8.69562 13.228 8.70014 13.3569 8.72981C13.7071 8.81042 14.1969 9.10565 14.7821 9.58877C15.1133 9.86228 15.764 10.4872 16.268 11.0161C17.0215 11.8066 17.197 11.9497 17.5372 12.051C17.6364 12.0806 17.7329 12.0835 18.9597 12.0941C20.3726 12.1062 20.3725 12.1062 20.563 12.021C20.6827 11.9675 20.7768 11.881 20.8282 11.7771C20.8905 11.6511 20.8885 11.4079 20.8236 11.2265C20.5775 10.5387 19.6672 9.45026 17.8865 7.71508C17.506 7.34429 17.416 7.24071 17.3436 7.09014C17.2679 6.93254 17.2757 6.80611 17.3722 6.62774C17.4135 6.55132 17.5552 6.34659 17.6871 6.17275C18.7318 4.79543 19.7309 3.31777 20.1519 2.52721C20.6026 1.6807 20.6666 1.25718 20.3723 1.06811C20.1894 0.950638 20.2327 0.954042 18.7603 0.941363C17.5249 0.930725 17.428 0.931967 17.3275 0.959817C17.1605 1.00613 17.0234 1.0807 16.9177 1.18281C16.793 1.30327 16.7596 1.35815 16.5667 1.75964C15.9385 3.06711 15.0196 4.49356 14.2391 5.37288C13.8704 5.78821 13.4859 6.11403 13.2167 6.23916C13.1044 6.29135 12.9382 6.31554 12.8608 6.29094C12.7814 6.26568 12.6743 6.15186 12.6279 6.0435C12.5936 5.96322 12.5931 5.9124 12.6033 3.68447C12.6131 1.55262 12.6118 1.39971 12.5822 1.28563C12.5245 1.06351 12.3882 0.931049 12.178 0.892873C12.1121 0.880886 11.449 0.87084 10.2354 0.863387L8.39279 0.852092L8.30293 0.889811C8.19578 0.934798 8.08935 1.02522 8.03565 1.11691C8.00501 1.1692 7.99636 1.21237 7.99549 1.31748C7.9941 1.48314 8.02466 1.54474 8.23333 1.797C8.57876 2.21457 8.71275 2.49007 8.8008 2.96386C8.83804 3.16433 8.83829 3.1853 8.82317 4.9244C8.80931 6.51993 8.80498 6.69359 8.77638 6.80447C8.7189 7.02729 8.63885 7.11315 8.4697 7.13334C7.92437 7.19847 6.85316 5.91079 5.85873 3.99474C5.43525 3.17881 5.17834 2.59585 4.82179 1.64176C4.61628 1.09182 4.41844 0.88203 4.05055 0.823944C3.94086 0.806608 1.55527 0.780675 1.4274 0.79543Z" fill="white"/>
</svg>
