<svg width="11" height="7" viewBox="0 0 11 7" fill="none" xmlns="http://www.w3.org/2000/svg">
<path d="M10.2615 1.6676L5.86637 6.07584C5.81405 6.12816 5.75736 6.16514 5.69632 6.18676C5.63528 6.20874 5.56987 6.21973 5.50011 6.21973C5.43034 6.21973 5.36494 6.20874 5.3039 6.18676C5.24285 6.16514 5.18617 6.12816 5.13384 6.07584L0.725612 1.6676C0.603524 1.54552 0.54248 1.39291 0.54248 1.20978C0.54248 1.02665 0.607885 0.869676 0.738693 0.738867C0.869501 0.608059 1.02211 0.542655 1.19652 0.542655C1.37093 0.542655 1.52354 0.608059 1.65435 0.738867L5.50011 4.58463L9.34587 0.738867C9.46795 0.61678 9.6183 0.555736 9.79689 0.555736C9.97584 0.555736 10.1307 0.62114 10.2615 0.751948C10.3923 0.882756 10.4577 1.03537 10.4577 1.20978C10.4577 1.38419 10.3923 1.5368 10.2615 1.6676Z" fill="white"/>
</svg>
