<svg width="20" height="14" viewBox="0 0 20 14" fill="none" xmlns="http://www.w3.org/2000/svg">
<path d="M19.2386 2.2188C19.1271 1.8045 18.9087 1.42675 18.6053 1.12336C18.3019 0.819978 17.9242 0.601599 17.5099 0.490081C15.9841 0.0771486 9.85313 0.0771484 9.85313 0.0771484C9.85313 0.0771484 3.72213 0.0771486 2.19638 0.490081C1.78207 0.601599 1.40432 0.819978 1.10094 1.12336C0.797556 1.42675 0.579176 1.8045 0.467659 2.2188C0.182767 3.77483 0.0445167 5.35417 0.0547258 6.93603C0.0445167 8.5179 0.182767 10.0972 0.467659 11.6533C0.579176 12.0676 0.797556 12.4453 1.10094 12.7487C1.40432 13.0521 1.78207 13.2705 2.19638 13.382C3.72213 13.7949 9.85313 13.7949 9.85313 13.7949C9.85313 13.7949 15.9841 13.7949 17.5099 13.382C17.9242 13.2705 18.3019 13.0521 18.6053 12.7487C18.9087 12.4453 19.1271 12.0676 19.2386 11.6533C19.5235 10.0972 19.6617 8.5179 19.6515 6.93603C19.6617 5.35417 19.5235 3.77483 19.2386 2.2188ZM7.89345 9.87556V3.99651L12.9816 6.93603L7.89345 9.87556Z" fill="white"/>
</svg>
